<?xml version="1.0" encoding="utf-8"?>
<!-- Generator: Adobe Illustrator 16.0.3, SVG Export Plug-In . SVG Version: 6.00 Build 0)  -->
<!DOCTYPE svg PUBLIC "-//W3C//DTD SVG 1.1//EN" "http://www.w3.org/Graphics/SVG/1.1/DTD/svg11.dtd">
<svg version="1.1" id="Layer_1" xmlns="http://www.w3.org/2000/svg" xmlns:xlink="http://www.w3.org/1999/xlink" x="0px" y="0px"
	 width="515.641px" height="90px" viewBox="0 0 515.641 90" enable-background="new 0 0 515.641 90" xml:space="preserve">
<g>
	<path fill="#EB2227" d="M18.414,69.1c-0.112,0.018-3.575,0.629-3.575,0.629s32.862,4.21,42.109,5.71
		c8.843,1.437,35.745,7.412,38.068,7.935v-38.58C81.222,54.012,54.04,63.188,18.414,69.1"/>
	<path fill="#EB2227" d="M71.624,29.797C71.624,13.069,31.919,1.351,27.147,0H0v66.959C4.558,66.156,71.624,53.908,71.624,29.797"/>
	<path fill="#EB2227" d="M82.945,9.574c3.779,1.667,8.143,3.859,12.071,6.397V0H56.235l0.032,0.331
		C56.267,0.331,73.239,5.301,82.945,9.574"/>
	<path fill="#EB2227" d="M78.554,86.875C54.464,80.018,3.8,71.705,0,71.087v18.906h85.49L87.36,90
		C87.36,90,83.09,88.169,78.554,86.875"/>
</g>
<g>
	<polyline points="271.321,65.587 247.362,65.587 265.416,20.787 289.131,20.787 271.321,65.587 	"/>
	<polyline points="309.008,55.707 337.766,55.825 333.923,65.58 281.122,65.58 299.182,20.78 322.899,20.78 309.008,55.707 	"/>
	<polyline points="362.023,65.58 338.065,65.58 356.122,20.78 379.837,20.78 362.023,65.58 	"/>
	<polyline points="419.872,47.396 430.833,20.668 452.025,20.668 434.207,65.587 408.925,65.587 403.792,38.87 393.211,65.474 
		371.661,65.474 389.717,20.675 415.296,20.675 419.872,47.396 	"/>
	<path d="M451.541,41.373c-1.34,3.296-5.421,13.833-2.645,19.023c2.773,5.19,14.804,5.895,22.753,5.895
		c7.945,0,27.552-0.821,35.032-10.474c3.729-4.815,4.209-8.182,4.209-8.182s-23.137-0.223-23.232,0
		c-1.443,3.366-2.286,11.435-12.038,10.955c0,0-3.373,0.121-4.333-2.169c-0.964-2.289,3.007-10.231,4.935-15.168
		c1.927-4.936,3.494-13.245,11.678-13.245c0,0,4.817,0.121,5.298,1.806c0.479,1.685-2.048,6.982-2.048,6.982h23.232
		c0,0,2.752-7.601,0.121-11.314c-4.092-5.777-19.862-5.537-19.862-5.537s-15.195,0.149-24.196,2.647
		C456.117,26.568,452.867,38.124,451.541,41.373"/>
	<path d="M151.349,38.968c-3.441,1.081-10.011,0.455-10.011,0.455l4.211-10.011c0,0,7.141-0.052,8.305,0.055
		c0.938,0.087,3.982,0.741,4.321,2.788C158.516,34.304,154.792,37.886,151.349,38.968 M166.937,20.94c-2.501,0-42.05,0-42.05,0
		l-17.864,44.658l23.736-0.011l7.281-18.202c0,0,6.572,0,8.42,0c0,0,3.299,0.685,3.866,2.161c0.569,1.479-4.437,11.832-4.892,13.652
		s0.229,2.389,0.229,2.389h23.663c0,0-0.798-1.365-0.343-3.526c0.627-2.969,4.894-10.125,4.551-13.536
		c-0.341-3.415-9.556-5.12-9.556-5.12s15.797-0.953,18.218-12.416C184.113,21.902,169.438,20.94,166.937,20.94z"/>
	<path d="M207.758,48.716l13-17.091l-0.72,17.091H207.758 M243.392,65.587l-4.938-44.8h-26.967l-40.806,44.8h24.799l5.537-7.479
		h17.936l-0.24,7.479H243.392z"/>
</g>
</svg>
